<svg width="290" height="290" viewBox="0 0 290 290" fill="none" xmlns="http://www.w3.org/2000/svg">
<rect x="0.5" y="0.5" width="289" height="289" fill="#4B4640"/>
<rect x="0.5" y="0.5" width="289" height="289"/>
<path d="M93.0815 57.973H88.1998C87.9111 56.5688 87.4059 55.3353 86.6841 54.2723C85.9755 53.2094 85.1094 52.317 84.0858 51.5953C83.0753 50.8604 81.9533 50.3092 80.7198 49.9418C79.4862 49.5743 78.2002 49.3906 76.8616 49.3906C74.4208 49.3906 72.2096 50.0074 70.228 51.2409C68.2596 52.4745 66.6914 54.292 65.5235 56.6935C64.3687 59.095 63.7913 62.041 63.7913 65.5317C63.7913 69.0224 64.3687 71.9685 65.5235 74.37C66.6914 76.7714 68.2596 78.589 70.228 79.8225C72.2096 81.056 74.4208 81.6728 76.8616 81.6728C78.2002 81.6728 79.4862 81.4891 80.7198 81.1217C81.9533 80.7542 83.0753 80.2096 84.0858 79.4879C85.1094 78.753 85.9755 77.8541 86.6841 76.7911C87.4059 75.715 87.9111 74.4815 88.1998 73.0905H93.0815C92.714 75.1508 92.0448 76.9945 91.0737 78.6218C90.1026 80.249 88.8953 81.6335 87.4518 82.7751C86.0083 83.9037 84.3876 84.7633 82.5898 85.3538C80.8051 85.9443 78.8957 86.2396 76.8616 86.2396C73.4235 86.2396 70.3658 85.3997 67.6888 83.72C65.0117 82.0403 62.9055 79.6519 61.3701 76.5549C59.8347 73.4579 59.0671 69.7835 59.0671 65.5317C59.0671 61.2799 59.8347 57.6055 61.3701 54.5085C62.9055 51.4115 65.0117 49.0232 67.6888 47.3434C70.3658 45.6637 73.4235 44.8239 76.8616 44.8239C78.8957 44.8239 80.8051 45.1191 82.5898 45.7097C84.3876 46.3002 86.0083 47.1663 87.4518 48.308C88.8953 49.4365 90.1026 50.8144 91.0737 52.4417C92.0448 54.0558 92.714 55.8995 93.0815 57.973ZM150.574 65.5317C150.574 69.7835 149.807 73.4579 148.271 76.5549C146.736 79.6519 144.63 82.0403 141.953 83.72C139.276 85.3997 136.218 86.2396 132.78 86.2396C129.342 86.2396 126.284 85.3997 123.607 83.72C120.93 82.0403 118.824 79.6519 117.288 76.5549C115.753 73.4579 114.985 69.7835 114.985 65.5317C114.985 61.2799 115.753 57.6055 117.288 54.5085C118.824 51.4115 120.93 49.0232 123.607 47.3434C126.284 45.6637 129.342 44.8239 132.78 44.8239C136.218 44.8239 139.276 45.6637 141.953 47.3434C144.63 49.0232 146.736 51.4115 148.271 54.5085C149.807 57.6055 150.574 61.2799 150.574 65.5317ZM145.85 65.5317C145.85 62.041 145.266 59.095 144.098 56.6935C142.943 54.292 141.375 52.4745 139.394 51.2409C137.425 50.0074 135.221 49.3906 132.78 49.3906C130.339 49.3906 128.128 50.0074 126.146 51.2409C124.178 52.4745 122.61 54.292 121.442 56.6935C120.287 59.095 119.709 62.041 119.709 65.5317C119.709 69.0224 120.287 71.9685 121.442 74.37C122.61 76.7714 124.178 78.589 126.146 79.8225C128.128 81.056 130.339 81.6728 132.78 81.6728C135.221 81.6728 137.425 81.056 139.394 79.8225C141.375 78.589 142.943 76.7714 144.098 74.37C145.266 71.9685 145.85 69.0224 145.85 65.5317ZM206.34 45.375V85.6884H201.616L179.648 54.0361H179.254V85.6884H174.373V45.375H179.097L201.143 77.1061H201.537V45.375H206.34Z" fill="white"/>
<path d="M62.2953 110.142L74.2633 144.077H74.7357L86.7038 110.142H91.8217L77.0191 150.455H71.9799L57.1774 110.142H62.2953ZM118.573 110.142V150.455H113.691V110.142H118.573ZM114.006 106.047L118.809 96.9137H124.242L118.1 106.047H114.006Z" fill="white"/>
<path d="M62.2953 174.908L74.2633 208.844H74.7357L86.7038 174.908H91.8217L77.0191 215.222H71.9799L57.1774 174.908H62.2953ZM118.573 174.908V215.222H113.691V174.908H118.573ZM177.965 195.065C177.965 199.317 177.197 202.991 175.662 206.088C174.127 209.185 172.02 211.573 169.343 213.253C166.666 214.933 163.609 215.773 160.17 215.773C156.732 215.773 153.675 214.933 150.998 213.253C148.32 211.573 146.214 209.185 144.679 206.088C143.144 202.991 142.376 199.317 142.376 195.065C142.376 190.813 143.144 187.139 144.679 184.042C146.214 180.945 148.32 178.556 150.998 176.877C153.675 175.197 156.732 174.357 160.17 174.357C163.609 174.357 166.666 175.197 169.343 176.877C172.02 178.556 174.127 180.945 175.662 184.042C177.197 187.139 177.965 190.813 177.965 195.065ZM173.241 195.065C173.241 191.574 172.657 188.628 171.489 186.227C170.334 183.825 168.766 182.008 166.784 180.774C164.816 179.541 162.611 178.924 160.17 178.924C157.73 178.924 155.518 179.541 153.537 180.774C151.568 182.008 150 183.825 148.832 186.227C147.677 188.628 147.1 191.574 147.1 195.065C147.1 198.556 147.677 201.502 148.832 203.903C150 206.305 151.568 208.122 153.537 209.356C155.518 210.589 157.73 211.206 160.17 211.206C162.611 211.206 164.816 210.589 166.784 209.356C168.766 208.122 170.334 206.305 171.489 203.903C172.657 201.502 173.241 198.556 173.241 195.065Z" fill="white"/>
<path d="M68 227H225.046" stroke="white" stroke-width="1.33333" stroke-miterlimit="10"/>
<path d="M50.1357 255H48.8366L56.1099 234.843H57.5272L64.8005 255H63.5014L56.8678 236.428H56.7693L50.1357 255ZM51.9762 247.412H61.6609V248.553H51.9762V247.412ZM68.5602 255V234.843H74.7706C76.0435 234.843 77.1393 235.093 78.0579 235.591C78.9765 236.09 79.6818 236.782 80.1739 237.668C80.6661 238.547 80.9121 239.571 80.9121 240.739C80.9121 241.894 80.6661 242.911 80.1739 243.79C79.6818 244.662 78.9765 245.345 78.0579 245.837C77.1459 246.329 76.0534 246.575 74.7805 246.575H69.2196V245.424H74.7509C75.7876 245.424 76.6734 245.23 77.4083 244.843C78.1432 244.456 78.7075 243.914 79.1012 243.219C79.4948 242.517 79.6917 241.69 79.6917 240.739C79.6917 239.781 79.4948 238.947 79.1012 238.239C78.7075 237.524 78.1399 236.969 77.3985 236.576C76.6636 236.182 75.7778 235.985 74.7411 235.985H69.7905V255H68.5602ZM76.8375 245.866L81.7979 255H80.3806L75.4497 245.866H76.8375ZM93.5937 248.701H95.011L97.9439 252.569L98.2195 252.943L101.192 256.89H99.7746L97.3337 253.652L97.0778 253.297L93.5937 248.701ZM101.861 244.922C101.861 247.002 101.5 248.819 100.778 250.374C100.057 251.923 99.0528 253.127 97.7668 253.986C96.4873 254.846 95.011 255.276 93.3378 255.276C91.6581 255.276 90.1752 254.846 88.8892 253.986C87.6097 253.12 86.6091 251.913 85.8873 250.364C85.1656 248.809 84.8047 246.995 84.8047 244.922C84.8047 242.842 85.1656 241.027 85.8873 239.479C86.6156 237.93 87.6195 236.726 88.899 235.867C90.1785 235.001 91.6581 234.568 93.3378 234.568C95.011 234.568 96.4873 234.997 97.7668 235.857C99.0528 236.717 100.057 237.924 100.778 239.479C101.5 241.027 101.861 242.842 101.861 244.922ZM100.66 244.922C100.66 243.052 100.345 241.431 99.7155 240.06C99.0922 238.688 98.2294 237.629 97.127 236.881C96.0247 236.126 94.7616 235.749 93.3378 235.749C91.914 235.749 90.6509 236.123 89.5486 236.871C88.4463 237.612 87.5802 238.672 86.9503 240.05C86.3269 241.421 86.0153 243.045 86.0153 244.922C86.0153 246.779 86.3236 248.396 86.9404 249.774C87.5638 251.145 88.4266 252.208 89.5289 252.963C90.6312 253.717 91.9009 254.095 93.3378 254.095C94.7616 254.095 96.0247 253.721 97.127 252.973C98.2294 252.218 99.0922 251.155 99.7155 249.784C100.345 248.412 100.66 246.792 100.66 244.922ZM120.32 234.843H121.55V248.189C121.55 249.561 121.232 250.784 120.596 251.86C119.959 252.93 119.08 253.776 117.958 254.4C116.842 255.016 115.56 255.325 114.11 255.325C112.666 255.325 111.383 255.016 110.261 254.4C109.139 253.776 108.257 252.927 107.614 251.851C106.977 250.774 106.662 249.554 106.669 248.189V234.843H107.899V248.12C107.899 249.282 108.162 250.315 108.687 251.221C109.218 252.126 109.95 252.841 110.881 253.366C111.813 253.885 112.889 254.144 114.11 254.144C115.33 254.144 116.406 253.885 117.338 253.366C118.27 252.841 118.998 252.126 119.523 251.221C120.054 250.315 120.32 249.282 120.32 248.12V234.843ZM128.605 234.843V255H127.374V234.843H128.605ZM133.1 235.985V234.843H147.224V235.985H140.777V255H139.547V235.985H133.1ZM151.707 255V234.843H162.927V235.985H152.937V244.341H162.326V245.483H152.937V253.858H163.163V255H151.707ZM166.689 235.985V234.843H180.812V235.985H174.366V255H173.135V235.985H166.689ZM198.946 234.843H200.177V248.189C200.177 249.561 199.858 250.784 199.222 251.86C198.586 252.93 197.706 253.776 196.584 254.4C195.469 255.016 194.186 255.325 192.736 255.325C191.292 255.325 190.01 255.016 188.888 254.4C187.766 253.776 186.883 252.927 186.24 251.851C185.604 250.774 185.289 249.554 185.295 248.189V234.843H186.526V248.12C186.526 249.282 186.788 250.315 187.313 251.221C187.844 252.126 188.576 252.841 189.508 253.366C190.44 253.885 191.516 254.144 192.736 254.144C193.956 254.144 195.033 253.885 195.964 253.366C196.896 252.841 197.624 252.126 198.149 251.221C198.681 250.315 198.946 249.282 198.946 248.12V234.843ZM206.001 255V234.843H212.211C213.484 234.843 214.58 235.093 215.498 235.591C216.417 236.09 217.122 236.782 217.614 237.668C218.107 238.547 218.353 239.571 218.353 240.739C218.353 241.894 218.107 242.911 217.614 243.79C217.122 244.662 216.417 245.345 215.498 245.837C214.586 246.329 213.494 246.575 212.221 246.575H206.66V245.424H212.191C213.228 245.424 214.114 245.23 214.849 244.843C215.584 244.456 216.148 243.914 216.542 243.219C216.935 242.517 217.132 241.69 217.132 240.739C217.132 239.781 216.935 238.947 216.542 238.239C216.148 237.524 215.58 236.969 214.839 236.576C214.104 236.182 213.218 235.985 212.182 235.985H207.231V255H206.001ZM214.278 245.866L219.238 255H217.821L212.89 245.866H214.278ZM222.491 255H221.192L228.465 234.843H229.883L237.156 255H235.857L229.223 236.428H229.125L222.491 255ZM224.332 247.412H234.016V248.553H224.332V247.412Z" fill="white"/>
<path d="M50.1357 255V255.667H50.6055L50.7636 255.224L50.1357 255ZM48.8366 255L48.2095 254.774L47.8873 255.667H48.8366V255ZM56.1099 234.843V234.177H55.6417L55.4828 234.617L56.1099 234.843ZM57.5272 234.843L58.1543 234.617L57.9954 234.177H57.5272V234.843ZM64.8005 255V255.667H65.7498L65.4276 254.774L64.8005 255ZM63.5014 255L62.8735 255.224L63.0316 255.667H63.5014V255ZM56.8678 236.428L57.4956 236.204L57.3376 235.761H56.8678V236.428ZM56.7693 236.428V235.761H56.2995L56.1415 236.204L56.7693 236.428ZM51.9762 247.412V246.745H51.3096V247.412H51.9762ZM61.6609 247.412H62.3276V246.745H61.6609V247.412ZM61.6609 248.553V249.22H62.3276V248.553H61.6609ZM51.9762 248.553H51.3096V249.22H51.9762V248.553ZM50.1357 254.333H48.8366V255.667H50.1357V254.333ZM49.4637 255.226L56.737 235.07L55.4828 234.617L48.2095 254.774L49.4637 255.226ZM56.1099 235.51H57.5272V234.177H56.1099V235.51ZM56.9001 235.07L64.1734 255.226L65.4276 254.774L58.1543 234.617L56.9001 235.07ZM64.8005 254.333H63.5014V255.667H64.8005V254.333ZM64.1292 254.776L57.4956 236.204L56.2399 236.652L62.8735 255.224L64.1292 254.776ZM56.8678 235.761H56.7693V237.095H56.8678V235.761ZM56.1415 236.204L49.5079 254.776L50.7636 255.224L57.3972 236.652L56.1415 236.204ZM51.9762 248.078H61.6609V246.745H51.9762V248.078ZM60.9942 247.412V248.553H62.3276V247.412H60.9942ZM61.6609 247.887H51.9762V249.22H61.6609V247.887ZM52.6429 248.553V247.412H51.3096V248.553H52.6429ZM68.5602 255H67.8936V255.667H68.5602V255ZM68.5602 234.843V234.177H67.8936V234.843H68.5602ZM80.1739 237.668L79.5912 237.992L79.5922 237.994L80.1739 237.668ZM80.1739 243.79L80.7547 244.117L80.7557 244.115L80.1739 243.79ZM78.0579 245.837L77.7431 245.249L77.7413 245.25L78.0579 245.837ZM69.2196 246.575H68.553V247.242H69.2196V246.575ZM69.2196 245.424V244.757H68.553V245.424H69.2196ZM77.4083 244.843L77.719 245.433L77.719 245.433L77.4083 244.843ZM79.1012 243.219L79.6813 243.547L79.6826 243.545L79.1012 243.219ZM79.1012 238.239L78.5171 238.56L78.5184 238.563L79.1012 238.239ZM77.3985 236.576L77.0836 237.163L77.0858 237.164L77.3985 236.576ZM69.7905 235.985V235.318H69.1238V235.985H69.7905ZM69.7905 255V255.667H70.4572V255H69.7905ZM76.8375 245.866L77.4233 245.548L77.234 245.2H76.8375V245.866ZM81.7979 255V255.667H82.9186L82.3837 254.682L81.7979 255ZM80.3806 255L79.794 255.317L79.9829 255.667H80.3806V255ZM75.4497 245.866V245.2H74.3322L74.8631 246.183L75.4497 245.866ZM69.2269 255V234.843H67.8936V255H69.2269ZM68.5602 235.51H74.7706V234.177H68.5602V235.51ZM74.7706 235.51C75.9564 235.51 76.938 235.742 77.7398 236.177L78.376 235.005C77.3406 234.443 76.1306 234.177 74.7706 234.177V235.51ZM77.7398 236.177C78.5508 236.617 79.1626 237.22 79.5912 237.992L80.7567 237.344C80.2011 236.344 79.4022 235.562 78.376 235.005L77.7398 236.177ZM79.5922 237.994C80.0203 238.758 80.2454 239.666 80.2454 240.739H81.5788C81.5788 239.475 81.3118 238.336 80.7557 237.342L79.5922 237.994ZM80.2454 240.739C80.2454 241.796 80.0209 242.698 79.5922 243.464L80.7557 244.115C81.3112 243.123 81.5788 241.991 81.5788 240.739H80.2454ZM79.5932 243.462C79.1659 244.22 78.5549 244.814 77.7431 245.249L78.3727 246.425C79.3981 245.875 80.1978 245.105 80.7546 244.117L79.5932 243.462ZM77.7413 245.25C76.9463 245.679 75.9678 245.908 74.7805 245.908V247.242C76.139 247.242 77.3454 246.979 78.3745 246.424L77.7413 245.25ZM74.7805 245.908H69.2196V247.242H74.7805V245.908ZM69.8863 246.575V245.424H68.553V246.575H69.8863ZM69.2196 246.09H74.7509V244.757H69.2196V246.09ZM74.7509 246.09C75.8696 246.09 76.8675 245.881 77.719 245.433L77.0976 244.253C76.4794 244.579 75.7057 244.757 74.7509 244.757V246.09ZM77.719 245.433C78.5622 244.989 79.2222 244.359 79.6813 243.547L78.521 242.891C78.1928 243.47 77.7241 243.923 77.0976 244.253L77.719 245.433ZM79.6826 243.545C80.1416 242.727 80.3584 241.783 80.3584 240.739H79.025C79.025 241.597 78.8481 242.307 78.5197 242.893L79.6826 243.545ZM80.3584 240.739C80.3584 239.688 80.1419 238.739 79.6839 237.915L78.5184 238.563C78.8478 239.156 79.025 239.873 79.025 240.739H80.3584ZM79.6852 237.917C79.2271 237.085 78.5637 236.439 77.7111 235.987L77.0858 237.164C77.7162 237.499 78.1878 237.962 78.5171 238.56L79.6852 237.917ZM77.7133 235.988C76.8608 235.531 75.8613 235.318 74.7411 235.318V236.652C75.6943 236.652 76.4664 236.832 77.0837 237.163L77.7133 235.988ZM74.7411 235.318H69.7905V236.652H74.7411V235.318ZM69.1238 235.985V255H70.4572V235.985H69.1238ZM69.7905 254.333H68.5602V255.667H69.7905V254.333ZM76.2516 246.185L81.2121 255.318L82.3837 254.682L77.4233 245.548L76.2516 246.185ZM81.7979 254.333H80.3806V255.667H81.7979V254.333ZM80.9673 254.683L76.0364 245.55L74.8631 246.183L79.794 255.317L80.9673 254.683ZM75.4497 246.533H76.8375V245.2H75.4497V246.533ZM93.5937 248.701V248.034H92.2518L93.0624 249.104L93.5937 248.701ZM95.011 248.701L95.5422 248.298L95.3421 248.034H95.011V248.701ZM97.9439 252.569L98.4807 252.173L98.4751 252.166L97.9439 252.569ZM98.2195 252.943L97.6828 253.338L97.687 253.344L98.2195 252.943ZM101.192 256.89V257.556H102.528L101.724 256.489L101.192 256.89ZM99.7746 256.89L99.2422 257.291L99.4422 257.556H99.7746V256.89ZM97.3337 253.652L96.7932 254.042L96.8014 254.053L97.3337 253.652ZM97.0778 253.297L97.6183 252.907L97.6138 252.901L97.6091 252.895L97.0778 253.297ZM100.778 250.374L101.383 250.656L101.383 250.655L100.778 250.374ZM97.7668 253.986L97.3963 253.432L97.395 253.433L97.7668 253.986ZM88.8892 253.986L88.5154 254.538L88.5187 254.541L88.8892 253.986ZM85.8873 250.364L85.2826 250.645L85.2831 250.646L85.8873 250.364ZM85.8873 239.479L85.284 239.195L85.2831 239.197L85.8873 239.479ZM88.899 235.867L89.2708 236.42L89.2727 236.419L88.899 235.867ZM97.7668 235.857L97.395 236.41L97.3963 236.411L97.7668 235.857ZM100.778 239.479L100.174 239.76L100.174 239.761L100.778 239.479ZM99.7155 240.06L99.1086 240.335L99.1097 240.338L99.7155 240.06ZM97.127 236.881L96.7505 237.431L96.7527 237.432L97.127 236.881ZM89.5486 236.871L89.9207 237.424L89.9229 237.422L89.5486 236.871ZM86.9503 240.05L86.3439 239.773L86.3434 239.774L86.9503 240.05ZM86.9404 249.774L86.3319 250.046L86.3335 250.05L86.9404 249.774ZM89.5289 252.963L89.1523 253.513L89.1523 253.513L89.5289 252.963ZM97.127 252.973L97.5014 253.524L97.5036 253.523L97.127 252.973ZM99.7155 249.784L99.1097 249.505L99.1086 249.508L99.7155 249.784ZM93.5937 249.368H95.011V248.034H93.5937V249.368ZM94.4798 249.104L97.4127 252.972L98.4751 252.166L95.5422 248.298L94.4798 249.104ZM97.4072 252.964L97.6828 253.338L98.7562 252.548L98.4806 252.174L97.4072 252.964ZM97.687 253.344L100.659 257.291L101.724 256.489L98.752 252.542L97.687 253.344ZM101.192 256.223H99.7746V257.556H101.192V256.223ZM100.307 256.488L97.8661 253.25L96.8014 254.053L99.2422 257.291L100.307 256.488ZM97.8742 253.261L97.6183 252.907L96.5374 253.688L96.7933 254.042L97.8742 253.261ZM97.6091 252.895L94.125 248.298L93.0624 249.104L96.5465 253.7L97.6091 252.895ZM101.194 244.922C101.194 246.925 100.847 248.643 100.174 250.094L101.383 250.655C102.154 248.995 102.528 247.078 102.528 244.922H101.194ZM100.174 250.093C99.4984 251.542 98.5706 252.647 97.3963 253.432L98.1372 254.541C99.5351 253.606 100.615 252.303 101.383 250.656L100.174 250.093ZM97.395 253.433C96.2349 254.212 94.8904 254.609 93.3378 254.609V255.942C95.1316 255.942 96.7397 255.479 98.1385 254.54L97.395 253.433ZM93.3378 254.609C91.7781 254.609 90.4266 254.212 89.2596 253.432L88.5187 254.541C89.9238 255.48 91.538 255.942 93.3378 255.942V254.609ZM89.2629 253.434C88.0936 252.643 87.1679 251.534 86.4916 250.083L85.2831 250.646C86.0502 252.292 87.1257 253.598 88.5155 254.538L89.2629 253.434ZM86.492 250.084C85.8187 248.633 85.4713 246.918 85.4713 244.922H84.138C84.138 247.072 84.5124 248.986 85.2826 250.645L86.492 250.084ZM85.4713 244.922C85.4713 242.918 85.8189 241.204 86.4916 239.761L85.2831 239.197C84.5122 240.851 84.138 242.765 84.138 244.922H85.4713ZM86.4906 239.763C87.1734 238.311 88.1022 237.205 89.2708 236.42L88.5272 235.313C87.1369 236.248 86.0579 237.55 85.284 239.195L86.4906 239.763ZM89.2727 236.419C90.4322 235.634 91.7792 235.234 93.3378 235.234V233.901C91.537 233.901 89.9247 234.367 88.5253 235.315L89.2727 236.419ZM93.3378 235.234C94.8904 235.234 96.2349 235.631 97.395 236.41L98.1385 235.304C96.7397 234.364 95.1316 233.901 93.3378 233.901V235.234ZM97.3963 236.411C98.5699 237.196 99.4978 238.303 100.174 239.76L101.383 239.198C100.616 237.545 99.5358 236.237 98.1372 235.303L97.3963 236.411ZM100.174 239.761C100.847 241.204 101.194 242.918 101.194 244.922H102.528C102.528 242.765 102.154 240.851 101.383 239.197L100.174 239.761ZM101.327 244.922C101.327 242.978 101 241.258 100.321 239.781L99.1097 240.338C99.6911 241.604 99.9937 243.125 99.9937 244.922H101.327ZM100.322 239.784C99.6552 238.316 98.7179 237.154 97.5014 236.329L96.7527 237.432C97.7408 238.103 98.5292 239.061 99.1086 240.335L100.322 239.784ZM97.5036 236.33C96.2829 235.495 94.8867 235.082 93.3378 235.082V236.415C94.6366 236.415 95.7665 236.757 96.7505 237.431L97.5036 236.33ZM93.3378 235.082C91.7902 235.082 90.3948 235.491 89.1743 236.319L89.9229 237.422C90.9071 236.755 92.0378 236.415 93.3378 236.415V235.082ZM89.1765 236.318C87.9584 237.137 87.0176 238.299 86.3439 239.773L87.5566 240.327C88.1427 239.045 88.9341 238.088 89.9207 237.424L89.1765 236.318ZM86.3434 239.774C85.6722 241.25 85.3486 242.973 85.3486 244.922H86.6819C86.6819 243.118 86.9816 241.592 87.5572 240.326L86.3434 239.774ZM85.3486 244.922C85.3486 246.851 85.669 248.565 86.3319 250.046L87.5489 249.501C86.9782 248.227 86.6819 246.706 86.6819 244.922H85.3486ZM86.3335 250.05C87.0006 251.517 87.9373 252.681 89.1523 253.513L89.9055 252.413C88.9159 251.735 88.1269 250.773 87.5473 249.498L86.3335 250.05ZM89.1523 253.513C90.3741 254.349 91.7771 254.761 93.3378 254.761V253.428C92.0246 253.428 90.8884 253.085 89.9055 252.413L89.1523 253.513ZM93.3378 254.761C94.8855 254.761 96.2809 254.352 97.5014 253.524L96.7527 252.421C95.7686 253.089 94.6378 253.428 93.3378 253.428V254.761ZM97.5036 253.523C98.7186 252.691 99.6553 251.527 100.322 250.06L99.1086 249.508C98.529 250.783 97.7401 251.745 96.7505 252.422L97.5036 253.523ZM100.321 250.062C101 248.585 101.327 246.865 101.327 244.922H99.9937C99.9937 246.718 99.6911 248.24 99.1097 249.505L100.321 250.062ZM120.32 234.843V234.177H119.653V234.843H120.32ZM121.55 234.843H122.217V234.177H121.55V234.843ZM120.596 251.86L121.169 252.201L121.169 252.2L120.596 251.86ZM117.958 254.4L118.281 254.983L118.282 254.982L117.958 254.4ZM110.261 254.4L109.938 254.982L109.94 254.984L110.261 254.4ZM107.614 251.851L107.04 252.19L107.042 252.192L107.614 251.851ZM106.669 248.189L107.336 248.192V248.189H106.669ZM106.669 234.843V234.177H106.002V234.843H106.669ZM107.899 234.843H108.566V234.177H107.899V234.843ZM108.687 251.221L108.11 251.555L108.112 251.558L108.687 251.221ZM110.881 253.366L110.554 253.947L110.557 253.949L110.881 253.366ZM117.338 253.366L117.662 253.949L117.665 253.947L117.338 253.366ZM119.523 251.221L118.948 250.883L118.946 250.886L119.523 251.221ZM120.32 235.51H121.55V234.177H120.32V235.51ZM120.884 234.843V248.189H122.217V234.843H120.884ZM120.884 248.189C120.884 249.453 120.592 250.557 120.022 251.521L121.169 252.2C121.872 251.011 122.217 249.668 122.217 248.189H120.884ZM120.023 251.519C119.448 252.484 118.657 253.249 117.634 253.817L118.282 254.982C119.503 254.304 120.47 253.375 121.169 252.201L120.023 251.519ZM117.635 253.816C116.632 254.371 115.463 254.658 114.11 254.658V255.991C115.657 255.991 117.053 255.662 118.281 254.983L117.635 253.816ZM114.11 254.658C112.764 254.658 111.594 254.371 110.583 253.815L109.94 254.984C111.173 255.661 112.568 255.991 114.11 255.991V254.658ZM110.585 253.817C109.563 253.249 108.767 252.481 108.186 251.509L107.042 252.192C107.746 253.372 108.716 254.303 109.938 254.982L110.585 253.817ZM108.188 251.511C107.618 250.548 107.33 249.448 107.336 248.192L106.002 248.186C105.995 249.66 106.337 251.001 107.04 252.19L108.188 251.511ZM107.336 248.189V234.843H106.002V248.189H107.336ZM106.669 235.51H107.899V234.177H106.669V235.51ZM107.233 234.843V248.12H108.566V234.843H107.233ZM107.233 248.12C107.233 249.386 107.52 250.537 108.11 251.555L109.263 250.886C108.804 250.093 108.566 249.177 108.566 248.12H107.233ZM108.112 251.558C108.704 252.567 109.522 253.365 110.554 253.947L111.209 252.785C110.378 252.317 109.732 251.685 109.262 250.883L108.112 251.558ZM110.557 253.949C111.602 254.53 112.792 254.81 114.11 254.81V253.477C112.986 253.477 112.025 253.239 111.206 252.784L110.557 253.949ZM114.11 254.81C115.427 254.81 116.618 254.53 117.662 253.949L117.014 252.784C116.195 253.239 115.233 253.477 114.11 253.477V254.81ZM117.665 253.947C118.698 253.365 119.514 252.566 120.1 251.555L118.946 250.886C118.482 251.686 117.841 252.318 117.011 252.785L117.665 253.947ZM120.098 251.558C120.696 250.54 120.987 249.387 120.987 248.12H119.653C119.653 249.176 119.413 250.091 118.948 250.883L120.098 251.558ZM120.987 248.12V234.843H119.653V248.12H120.987ZM128.605 234.843H129.271V234.177H128.605V234.843ZM128.605 255V255.667H129.271V255H128.605ZM127.374 255H126.708V255.667H127.374V255ZM127.374 234.843V234.177H126.708V234.843H127.374ZM127.938 234.843V255H129.271V234.843H127.938ZM128.605 254.333H127.374V255.667H128.605V254.333ZM128.041 255V234.843H126.708V255H128.041ZM127.374 235.51H128.605V234.177H127.374V235.51ZM133.1 235.985H132.433V236.652H133.1V235.985ZM133.1 234.843V234.177H132.433V234.843H133.1ZM147.224 234.843H147.89V234.177H147.224V234.843ZM147.224 235.985V236.652H147.89V235.985H147.224ZM140.777 235.985V235.318H140.11V235.985H140.777ZM140.777 255V255.667H141.444V255H140.777ZM139.547 255H138.88V255.667H139.547V255ZM139.547 235.985H140.213V235.318H139.547V235.985ZM133.767 235.985V234.843H132.433V235.985H133.767ZM133.1 235.51H147.224V234.177H133.1V235.51ZM146.557 234.843V235.985H147.89V234.843H146.557ZM147.224 235.318H140.777V236.652H147.224V235.318ZM140.11 235.985V255H141.444V235.985H140.11ZM140.777 254.333H139.547V255.667H140.777V254.333ZM140.213 255V235.985H138.88V255H140.213ZM139.547 235.318H133.1V236.652H139.547V235.318ZM151.707 255H151.04V255.667H151.707V255ZM151.707 234.843V234.177H151.04V234.843H151.707ZM162.927 234.843H163.593V234.177H162.927V234.843ZM162.927 235.985V236.652H163.593V235.985H162.927ZM152.937 235.985V235.318H152.27V235.985H152.937ZM152.937 244.341H152.27V245.008H152.937V244.341ZM162.326 244.341H162.993V243.674H162.326V244.341ZM162.326 245.483V246.149H162.993V245.483H162.326ZM152.937 245.483V244.816H152.27V245.483H152.937ZM152.937 253.858H152.27V254.525H152.937V253.858ZM163.163 253.858H163.83V253.192H163.163V253.858ZM163.163 255V255.667H163.83V255H163.163ZM152.373 255V234.843H151.04V255H152.373ZM151.707 235.51H162.927V234.177H151.707V235.51ZM162.26 234.843V235.985H163.593V234.843H162.26ZM162.927 235.318H152.937V236.652H162.927V235.318ZM152.27 235.985V244.341H153.604V235.985H152.27ZM152.937 245.008H162.326V243.674H152.937V245.008ZM161.66 244.341V245.483H162.993V244.341H161.66ZM162.326 244.816H152.937V246.149H162.326V244.816ZM152.27 245.483V253.858H153.604V245.483H152.27ZM152.937 254.525H163.163V253.192H152.937V254.525ZM162.496 253.858V255H163.83V253.858H162.496ZM163.163 254.333H151.707V255.667H163.163V254.333ZM166.689 235.985H166.022V236.652H166.689V235.985ZM166.689 234.843V234.177H166.022V234.843H166.689ZM180.812 234.843H181.479V234.177H180.812V234.843ZM180.812 235.985V236.652H181.479V235.985H180.812ZM174.366 235.985V235.318H173.699V235.985H174.366ZM174.366 255V255.667H175.032V255H174.366ZM173.135 255H172.469V255.667H173.135V255ZM173.135 235.985H173.802V235.318H173.135V235.985ZM167.355 235.985V234.843H166.022V235.985H167.355ZM166.689 235.51H180.812V234.177H166.689V235.51ZM180.146 234.843V235.985H181.479V234.843H180.146ZM180.812 235.318H174.366V236.652H180.812V235.318ZM173.699 235.985V255H175.032V235.985H173.699ZM174.366 254.333H173.135V255.667H174.366V254.333ZM173.802 255V235.985H172.469V255H173.802ZM173.135 235.318H166.689V236.652H173.135V235.318ZM198.946 234.843V234.177H198.28V234.843H198.946ZM200.177 234.843H200.843V234.177H200.177V234.843ZM199.222 251.86L199.795 252.201L199.796 252.2L199.222 251.86ZM196.584 254.4L196.907 254.983L196.908 254.982L196.584 254.4ZM188.888 254.4L188.564 254.982L188.567 254.984L188.888 254.4ZM186.24 251.851L185.666 252.19L185.668 252.192L186.24 251.851ZM185.295 248.189L185.962 248.192V248.189H185.295ZM185.295 234.843V234.177H184.629V234.843H185.295ZM186.526 234.843H187.192V234.177H186.526V234.843ZM187.313 251.221L186.736 251.555L186.738 251.558L187.313 251.221ZM189.508 253.366L189.181 253.947L189.184 253.949L189.508 253.366ZM195.964 253.366L196.288 253.949L196.291 253.947L195.964 253.366ZM198.149 251.221L197.574 250.883L197.572 250.886L198.149 251.221ZM198.946 235.51H200.177V234.177H198.946V235.51ZM199.51 234.843V248.189H200.843V234.843H199.51ZM199.51 248.189C199.51 249.453 199.218 250.557 198.648 251.521L199.796 252.2C200.499 251.011 200.843 249.668 200.843 248.189H199.51ZM198.649 251.519C198.075 252.484 197.283 253.249 196.261 253.817L196.908 254.982C198.13 254.304 199.096 253.375 199.795 252.201L198.649 251.519ZM196.262 253.816C195.258 254.371 194.089 254.658 192.736 254.658V255.991C194.283 255.991 195.68 255.662 196.907 254.983L196.262 253.816ZM192.736 254.658C191.39 254.658 190.22 254.371 189.209 253.815L188.567 254.984C189.799 255.661 191.195 255.991 192.736 255.991V254.658ZM189.211 253.817C188.19 253.249 187.394 252.481 186.812 251.509L185.668 252.192C186.373 253.372 187.342 254.303 188.564 254.982L189.211 253.817ZM186.814 251.511C186.244 250.548 185.956 249.448 185.962 248.192L184.629 248.186C184.622 249.66 184.963 251.001 185.666 252.19L186.814 251.511ZM185.962 248.189V234.843H184.629V248.189H185.962ZM185.295 235.51H186.526V234.177H185.295V235.51ZM185.859 234.843V248.12H187.192V234.843H185.859ZM185.859 248.12C185.859 249.386 186.146 250.537 186.736 251.555L187.89 250.886C187.43 250.093 187.192 249.177 187.192 248.12H185.859ZM186.738 251.558C187.33 252.567 188.148 253.365 189.181 253.947L189.835 252.785C189.004 252.317 188.359 251.685 187.888 250.883L186.738 251.558ZM189.184 253.949C190.228 254.53 191.419 254.81 192.736 254.81V253.477C191.612 253.477 190.651 253.239 189.832 252.784L189.184 253.949ZM192.736 254.81C194.053 254.81 195.244 254.53 196.288 253.949L195.64 252.784C194.821 253.239 193.86 253.477 192.736 253.477V254.81ZM196.291 253.947C197.324 253.365 198.14 252.566 198.726 251.555L197.572 250.886C197.109 251.686 196.467 252.318 195.637 252.785L196.291 253.947ZM198.724 251.558C199.322 250.54 199.613 249.387 199.613 248.12H198.28C198.28 249.176 198.039 250.091 197.574 250.883L198.724 251.558ZM199.613 248.12V234.843H198.28V248.12H199.613ZM206.001 255H205.334V255.667H206.001V255ZM206.001 234.843V234.177H205.334V234.843H206.001ZM217.614 237.668L217.032 237.992L217.033 237.994L217.614 237.668ZM217.614 243.79L218.195 244.117L218.196 244.115L217.614 243.79ZM215.498 245.837L215.184 245.249L215.182 245.25L215.498 245.837ZM206.66 246.575H205.994V247.242H206.66V246.575ZM206.66 245.424V244.757H205.994V245.424H206.66ZM214.849 244.843L215.16 245.433L215.16 245.433L214.849 244.843ZM216.542 243.219L217.122 243.547L217.123 243.545L216.542 243.219ZM216.542 238.239L215.958 238.56L215.959 238.563L216.542 238.239ZM214.839 236.576L214.524 237.163L214.526 237.164L214.839 236.576ZM207.231 235.985V235.318H206.564V235.985H207.231ZM207.231 255V255.667H207.898V255H207.231ZM214.278 245.866L214.864 245.548L214.675 245.2H214.278V245.866ZM219.238 255V255.667H220.359L219.824 254.682L219.238 255ZM217.821 255L217.235 255.317L217.423 255.667H217.821V255ZM212.89 245.866V245.2H211.773L212.304 246.183L212.89 245.866ZM206.667 255V234.843H205.334V255H206.667ZM206.001 235.51H212.211V234.177H206.001V235.51ZM212.211 235.51C213.397 235.51 214.378 235.742 215.18 236.177L215.816 235.005C214.781 234.443 213.571 234.177 212.211 234.177V235.51ZM215.18 236.177C215.991 236.617 216.603 237.22 217.032 237.992L218.197 237.344C217.642 236.344 216.843 235.562 215.816 235.005L215.18 236.177ZM217.033 237.994C217.461 238.758 217.686 239.666 217.686 240.739H219.019C219.019 239.475 218.752 238.336 218.196 237.342L217.033 237.994ZM217.686 240.739C217.686 241.796 217.461 242.698 217.033 243.464L218.196 244.115C218.752 243.123 219.019 241.991 219.019 240.739H217.686ZM217.034 243.462C216.606 244.22 215.995 244.814 215.184 245.249L215.813 246.425C216.839 245.875 217.638 245.105 218.195 244.117L217.034 243.462ZM215.182 245.25C214.387 245.679 213.408 245.908 212.221 245.908V247.242C213.579 247.242 214.786 246.979 215.815 246.424L215.182 245.25ZM212.221 245.908H206.66V247.242H212.221V245.908ZM207.327 246.575V245.424H205.994V246.575H207.327ZM206.66 246.09H212.191V244.757H206.66V246.09ZM212.191 246.09C213.31 246.09 214.308 245.881 215.16 245.433L214.538 244.253C213.92 244.579 213.146 244.757 212.191 244.757V246.09ZM215.16 245.433C216.003 244.989 216.663 244.359 217.122 243.547L215.962 242.891C215.633 243.47 215.165 243.923 214.538 244.253L215.16 245.433ZM217.123 243.545C217.582 242.727 217.799 241.783 217.799 240.739H216.466C216.466 241.597 216.289 242.307 215.96 242.893L217.123 243.545ZM217.799 240.739C217.799 239.688 217.582 238.739 217.124 237.915L215.959 238.563C216.288 239.156 216.466 239.873 216.466 240.739H217.799ZM217.126 237.917C216.668 237.085 216.004 236.439 215.152 235.987L214.526 237.164C215.157 237.499 215.628 237.962 215.958 238.56L217.126 237.917ZM215.154 235.988C214.301 235.531 213.302 235.318 212.182 235.318V236.652C213.135 236.652 213.907 236.832 214.524 237.163L215.154 235.988ZM212.182 235.318H207.231V236.652H212.182V235.318ZM206.564 235.985V255H207.898V235.985H206.564ZM207.231 254.333H206.001V255.667H207.231V254.333ZM213.692 246.185L218.653 255.318L219.824 254.682L214.864 245.548L213.692 246.185ZM219.238 254.333H217.821V255.667H219.238V254.333ZM218.408 254.683L213.477 245.55L212.304 246.183L217.235 255.317L218.408 254.683ZM212.89 246.533H214.278V245.2H212.89V246.533ZM222.491 255V255.667H222.961L223.119 255.224L222.491 255ZM221.192 255L220.565 254.774L220.243 255.667H221.192V255ZM228.465 234.843V234.177H227.997L227.838 234.617L228.465 234.843ZM229.883 234.843L230.51 234.617L230.351 234.177H229.883V234.843ZM237.156 255V255.667H238.105L237.783 254.774L237.156 255ZM235.857 255L235.229 255.224L235.387 255.667H235.857V255ZM229.223 236.428L229.851 236.204L229.693 235.761H229.223V236.428ZM229.125 236.428V235.761H228.655L228.497 236.204L229.125 236.428ZM224.332 247.412V246.745H223.665V247.412H224.332ZM234.016 247.412H234.683V246.745H234.016V247.412ZM234.016 248.553V249.22H234.683V248.553H234.016ZM224.332 248.553H223.665V249.22H224.332V248.553ZM222.491 254.333H221.192V255.667H222.491V254.333ZM221.819 255.226L229.093 235.07L227.838 234.617L220.565 254.774L221.819 255.226ZM228.465 235.51H229.883V234.177H228.465V235.51ZM229.256 235.07L236.529 255.226L237.783 254.774L230.51 234.617L229.256 235.07ZM237.156 254.333H235.857V255.667H237.156V254.333ZM236.485 254.776L229.851 236.204L228.595 236.652L235.229 255.224L236.485 254.776ZM229.223 235.761H229.125V237.095H229.223V235.761ZM228.497 236.204L221.863 254.776L223.119 255.224L229.753 236.652L228.497 236.204ZM224.332 248.078H234.016V246.745H224.332V248.078ZM233.35 247.412V248.553H234.683V247.412H233.35ZM234.016 247.887H224.332V249.22H234.016V247.887ZM224.998 248.553V247.412H223.665V248.553H224.998Z" fill="white"/>
</svg>
